<svg height="478" width="720" xmlns="http://www.w3.org/2000/svg">
<rect height="478" fill="#555" width="720"></rect>
<text fill="#7f7" font-family="Courier New" font-size="12" xml:space="preserve">
<tspan x="10" y="26">11 megabytes installed</tspan>
<tspan x="10" y="42"></tspan>
<tspan x="10" y="58">node_modules</tspan>
<tspan x="10" y="74">└─┬ snaplog@0.3.3 </tspan>
<tspan x="10" y="90">  ├─┬ chalk@1.1.3 </tspan>
<tspan x="10" y="106">  │ ├── ansi-styles@2.2.1 </tspan>
<tspan x="10" y="122">  │ ├── escape-string-regexp@1.0.5 </tspan>
<tspan x="10" y="138">  │ ├── has-ansi@2.0.0 </tspan>
<tspan x="10" y="154">  │ ├── strip-ansi@3.0.1 </tspan>
<tspan x="10" y="170">  │ └── supports-color@2.0.0 </tspan>
<tspan x="10" y="186">  ├─┬ charm@1.0.2 </tspan>
<tspan x="10" y="202">  │ └── inherits@2.0.3 </tspan>
<tspan x="10" y="218">  ├─┬ cli-color@1.2.0 </tspan>
<tspan x="10" y="234">  │ ├── ansi-regex@2.1.1 </tspan>
<tspan x="10" y="250">  │ ├── d@1.0.0 </tspan>
<tspan x="10" y="266">  │ ├─┬ es5-ext@0.10.15 </tspan>
<tspan x="10" y="282">  │ │ └── es6-symbol@3.1.1 </tspan>
<tspan x="10" y="298">  │ ├── es6-iterator@2.0.1 </tspan>
<tspan x="10" y="314">  │ ├─┬ memoizee@0.4.4 </tspan>
<tspan x="10" y="330">  │ │ ├── es6-weak-map@2.0.2 </tspan>
<tspan x="10" y="346">  │ │ ├── event-emitter@0.3.5 </tspan>
<tspan x="10" y="362">  │ │ ├── is-promise@2.1.0 </tspan>
<tspan x="10" y="378">  │ │ ├── lru-queue@0.1.0 </tspan>
<tspan x="10" y="394">  │ │ └── next-tick@1.0.0 </tspan>
<tspan x="10" y="410">  │ └── timers-ext@0.1.2 </tspan>
<tspan x="10" y="426">  ├── lodash@3.10.1 </tspan>
<tspan x="10" y="442">  ├── moment@2.18.1 </tspan>
<tspan x="10" y="458">  └── stack-trace@0.0.9</tspan>
</text>
</svg>
